<svg xmlns="http://www.w3.org/2000/svg" viewBox="0 0 1280 320" role="img" aria-labelledby="banner-title banner-desc">
  <title id="banner-title">anytocontext</title>
  <desc id="banner-desc">Turn anything into context for your AI agent.</desc>

  <defs>
    <linearGradient id="bg" x1="0" y1="0" x2="1" y2="1">
      <stop offset="0%" stop-color="#0b0b14"/>
      <stop offset="100%" stop-color="#181530"/>
    </linearGradient>
    <radialGradient id="glow" cx="50%" cy="35%" r="55%">
      <stop offset="0%" stop-color="#8a6dff" stop-opacity="0.35"/>
      <stop offset="60%" stop-color="#8a6dff" stop-opacity="0.08"/>
      <stop offset="100%" stop-color="#8a6dff" stop-opacity="0"/>
    </radialGradient>
    <pattern id="dots" x="0" y="0" width="24" height="24" patternUnits="userSpaceOnUse">
      <circle cx="2" cy="2" r="1" fill="#ffffff" fill-opacity="0.05"/>
    </pattern>
    <linearGradient id="lineGrad" x1="0" y1="0" x2="1" y2="0">
      <stop offset="0%" stop-color="#9b87ff" stop-opacity="0.15"/>
      <stop offset="50%" stop-color="#9b87ff" stop-opacity="0.65"/>
      <stop offset="100%" stop-color="#9b87ff" stop-opacity="0.15"/>
    </linearGradient>
  </defs>

  <rect width="1280" height="320" fill="url(#bg)"/>
  <rect width="1280" height="320" fill="url(#dots)"/>
  <ellipse cx="640" cy="112" rx="440" ry="200" fill="url(#glow)"/>

  <g font-family="ui-monospace, SFMono-Regular, Menlo, Consolas, monospace" font-size="13" fill="#d6dbeb">
    <g transform="translate(96, 56)">
      <rect width="108" height="32" rx="16" fill="#ffffff" fill-opacity="0.05" stroke="#ffffff" stroke-opacity="0.16"/>
      <text x="54" y="21" text-anchor="middle">git repo</text>
    </g>
    <g transform="translate(56, 104)">
      <rect width="108" height="32" rx="16" fill="#ffffff" fill-opacity="0.05" stroke="#ffffff" stroke-opacity="0.16"/>
      <text x="54" y="21" text-anchor="middle">documents</text>
    </g>
    <g transform="translate(96, 152)">
      <rect width="108" height="32" rx="16" fill="#ffffff" fill-opacity="0.05" stroke="#ffffff" stroke-opacity="0.16"/>
      <text x="54" y="21" text-anchor="middle">web pages</text>
    </g>
    <g transform="translate(56, 200)">
      <rect width="108" height="32" rx="16" fill="#ffffff" fill-opacity="0.05" stroke="#ffffff" stroke-opacity="0.16"/>
      <text x="54" y="21" text-anchor="middle">anything</text>
    </g>
  </g>

  <g stroke="url(#lineGrad)" stroke-width="1.4" fill="none">
    <path d="M204 72 C 340 72, 470 112, 640 112"/>
    <path d="M164 120 C 320 120, 470 112, 640 112"/>
    <path d="M204 168 C 340 168, 470 112, 640 112"/>
    <path d="M164 216 C 320 216, 470 112, 640 112"/>
  </g>

  <g font-family="ui-monospace, SFMono-Regular, Menlo, Consolas, monospace" font-size="13" fill="#d6dbeb">
    <g transform="translate(1076, 56)">
      <rect width="108" height="32" rx="16" fill="#ffffff" fill-opacity="0.05" stroke="#ffffff" stroke-opacity="0.16"/>
      <text x="54" y="21" text-anchor="middle">chat</text>
    </g>
    <g transform="translate(1116, 104)">
      <rect width="108" height="32" rx="16" fill="#ffffff" fill-opacity="0.05" stroke="#ffffff" stroke-opacity="0.16"/>
      <text x="54" y="21" text-anchor="middle">mcp</text>
    </g>
    <g transform="translate(1076, 152)">
      <rect width="108" height="32" rx="16" fill="#ffffff" fill-opacity="0.05" stroke="#ffffff" stroke-opacity="0.16"/>
      <text x="54" y="21" text-anchor="middle">skill</text>
    </g>
    <g transform="translate(1116, 200)">
      <rect width="108" height="32" rx="16" fill="#ffffff" fill-opacity="0.05" stroke="#ffffff" stroke-opacity="0.16"/>
      <text x="54" y="21" text-anchor="middle">your agent</text>
    </g>
  </g>

  <g stroke="url(#lineGrad)" stroke-width="1.4" fill="none">
    <path d="M640 112 C 810 112, 940 72, 1076 72"/>
    <path d="M640 112 C 820 112, 960 120, 1116 120"/>
    <path d="M640 112 C 810 112, 940 168, 1076 168"/>
    <path d="M640 112 C 820 112, 960 216, 1116 216"/>
  </g>

  <g transform="translate(595, 67) scale(1.4)" fill="none" stroke="#ffffff" stroke-width="3.5" stroke-linecap="round" stroke-linejoin="round">
    <path d="M51 19 A 22 22 0 1 0 51 45"/>
    <path d="M20 48 L 30 14 L 40 48"/>
    <path d="M24 36 H 36"/>
  </g>

  <text x="640" y="262" text-anchor="middle" fill="#ffffff" font-family="ui-sans-serif, system-ui, -apple-system, 'Segoe UI', Roboto, 'Helvetica Neue', Arial, sans-serif" font-size="36" font-weight="700" letter-spacing="-1">anytocontext</text>
  <text x="640" y="294" text-anchor="middle" fill="#a8b0c4" font-family="ui-sans-serif, system-ui, -apple-system, 'Segoe UI', Roboto, 'Helvetica Neue', Arial, sans-serif" font-size="14" letter-spacing="0.3">Turn anything into context for your AI agent.</text>
</svg>
